<svg width="26" height="27" viewBox="0 0 26 27" fill="none" xmlns="http://www.w3.org/2000/svg">
<path d="M25.3906 6.91884L19.5821 1.10936C19.389 0.916174 19.1597 0.762925 18.9073 0.65837C18.6549 0.553814 18.3844 0.5 18.1112 0.5C17.838 0.5 17.5675 0.553814 17.3151 0.65837C17.0627 0.762925 16.8334 0.916174 16.6402 1.10936L0.609717 17.1403C0.415729 17.3328 0.261929 17.5619 0.157259 17.8143C0.0525893 18.0667 -0.000862481 18.3374 1.05236e-05 18.6106V24.4201C1.05236e-05 24.9717 0.219155 25.5007 0.609236 25.8908C0.999316 26.2809 1.52838 26.5 2.08003 26.5H7.8898C8.16306 26.5009 8.43376 26.4474 8.68617 26.3427C8.93858 26.2381 9.16767 26.0843 9.36012 25.8903L25.3906 9.86063C25.5838 9.66748 25.7371 9.43817 25.8416 9.18579C25.9462 8.93342 26 8.66291 26 8.38973C26 8.11655 25.9462 7.84605 25.8416 7.59367C25.7371 7.34129 25.5838 7.11199 25.3906 6.91884ZM2.51034 18.1803L14.256 6.43526L16.4244 8.60487L4.68007 20.3486L2.51034 18.1803ZM2.08003 20.6905L5.80978 24.4201H2.08003V20.6905ZM8.32011 23.9898L6.15038 21.8202L17.896 10.0751L20.0644 12.2447L8.32011 23.9898Z" fill="#330900"/>
</svg>
