<svg width="17" height="11" viewBox="0 0 17 11" fill="none" xmlns="http://www.w3.org/2000/svg">
<path fill-rule="evenodd" clip-rule="evenodd" d="M9.69675 9.99317C9.38197 10.3177 8.95527 10.5 8.51038 10.5C8.06549 10.5 7.63879 10.3177 7.32401 9.99317L0.991478 3.45845C0.676685 3.13334 0.499895 2.69245 0.5 2.23278C0.500105 1.77311 0.677096 1.33231 0.992038 1.00735C1.30698 0.682391 1.73407 0.499892 2.17936 0.5C2.62465 0.500108 3.05166 0.682816 3.36646 1.00793L8.51038 6.31796L13.6543 1.00793C13.9708 0.692083 14.3948 0.517193 14.835 0.520926C15.2752 0.524659 15.6963 0.706716 16.0077 1.02789C16.3191 1.34906 16.4959 1.78364 16.4999 2.23804C16.504 2.69243 16.3349 3.13029 16.0293 3.45729L9.69787 9.99432L9.69675 9.99317Z" fill="#330900"/>
</svg>
