<svg width="41" height="29" viewBox="0 0 41 29" fill="none" xmlns="http://www.w3.org/2000/svg">
<path d="M34.85 4.14286C34.85 1.86429 33.005 0 30.75 0H24.6V4.14286H30.75V9.63214L23.616 18.6429H16.4V8.28571H8.2C3.6695 8.28571 0 11.9936 0 16.5714V22.7857H4.1C4.1 26.2243 6.847 29 10.25 29C13.653 29 16.4 26.2243 16.4 22.7857H25.584L34.85 11.0821V4.14286ZM10.25 24.8571C9.1225 24.8571 8.2 23.925 8.2 22.7857H12.3C12.3 23.925 11.3775 24.8571 10.25 24.8571ZM12.3 18.6429H4.1V16.5714C4.1 14.2929 5.945 12.4286 8.2 12.4286H12.3V18.6429Z" fill="#000F0E"/>
<path d="M6.1499 2.07143H16.3999V6.21429H6.1499V2.07143ZM34.8499 16.5714C31.4469 16.5714 28.6999 19.3471 28.6999 22.7857C28.6999 26.2243 31.4469 29 34.8499 29C38.2529 29 40.9999 26.2243 40.9999 22.7857C40.9999 19.3471 38.2529 16.5714 34.8499 16.5714ZM34.8499 24.8571C33.7224 24.8571 32.7999 23.925 32.7999 22.7857C32.7999 21.6464 33.7224 20.7143 34.8499 20.7143C35.9774 20.7143 36.8999 21.6464 36.8999 22.7857C36.8999 23.925 35.9774 24.8571 34.8499 24.8571Z" fill="#000F0E"/>
</svg>
