<svg width="17" height="17" viewBox="0 0 17 17" fill="none" xmlns="http://www.w3.org/2000/svg">
<path fill-rule="evenodd" clip-rule="evenodd" d="M2.92526 2.92526C1.55842 4.2921 0.875 5.94201 0.875 7.875C0.875 9.80799 1.55842 11.4579 2.92526 12.8247C4.2921 14.1916 5.94201 14.875 7.875 14.875C9.80799 14.875 11.4579 14.1916 12.8247 12.8247C14.1916 11.4579 14.875 9.80799 14.875 7.875C14.875 5.94201 14.1916 4.2921 12.8247 2.92526C11.4579 1.55842 9.80799 0.875 7.875 0.875C5.94201 0.875 4.2921 1.55842 2.92526 2.92526ZM3.80914 11.9409C2.68638 10.8181 2.125 9.46281 2.125 7.875C2.125 6.28719 2.68638 4.9319 3.80914 3.80914C4.9319 2.68638 6.28719 2.125 7.875 2.125C9.46281 2.125 10.8181 2.68638 11.9409 3.80914C13.0636 4.9319 13.625 6.28719 13.625 7.875C13.625 9.46281 13.0636 10.8181 11.9409 11.9409C10.8181 13.0636 9.46281 13.625 7.875 13.625C6.28719 13.625 4.93191 13.0636 3.80914 11.9409Z" fill="#330900"/>
<path fill-rule="evenodd" clip-rule="evenodd" d="M12.0163 12.9002L15.1983 16.0822C15.2569 16.1408 15.3245 16.186 15.4011 16.2177C15.4776 16.2494 15.5574 16.2652 15.6402 16.2652C15.7231 16.2652 15.8028 16.2494 15.8794 16.2177C15.956 16.186 16.0236 16.1408 16.0822 16.0822C16.1408 16.0236 16.1859 15.956 16.2177 15.8794C16.2494 15.8028 16.2652 15.7231 16.2652 15.6402C16.2652 15.5574 16.2494 15.4776 16.2177 15.4011C16.1859 15.3245 16.1408 15.2569 16.0822 15.1983L12.9002 12.0163C12.8416 11.9577 12.774 11.9125 12.6974 11.8808C12.6209 11.8491 12.5411 11.8333 12.4583 11.8333C12.3754 11.8333 12.2956 11.8491 12.2191 11.8808C12.1425 11.9125 12.0749 11.9577 12.0163 12.0163C11.9577 12.0749 11.9125 12.1425 11.8808 12.2191C11.8491 12.2956 11.8333 12.3754 11.8333 12.4583C11.8333 12.5411 11.8491 12.6209 11.8808 12.6974C11.9125 12.774 11.9577 12.8416 12.0163 12.9002Z" fill="#330900"/>
</svg>
