<svg width="33" height="42" viewBox="0 0 33 42" fill="none" xmlns="http://www.w3.org/2000/svg">
<path d="M31.2321 0.5C31.6593 0.500018 32.0721 0.653793 32.3941 0.932888C32.716 1.21198 32.9254 1.59752 32.9835 2.01819L33 2.25717V39.7434C32.9999 40.1886 32.8297 40.6171 32.5239 40.9424C32.2181 41.2678 31.7995 41.4656 31.3526 41.4959C30.9058 41.5263 30.464 41.3869 30.1165 41.1059C29.7691 40.825 29.5418 40.4234 29.4808 39.9823L29.4643 39.7434V28.0289H24.1607C23.7335 28.0289 23.3208 27.8751 22.9988 27.596C22.6768 27.3169 22.4675 26.9314 22.4094 26.5107L22.3929 26.2718V9.28583C22.3929 6.95568 23.3241 4.72097 24.9818 3.07331C26.6395 1.42565 28.8878 0.5 31.2321 0.5ZM17.0893 0.5C17.5165 0.500018 17.9292 0.653793 18.2512 0.932888C18.5732 1.21198 18.7825 1.59752 18.8406 2.01819L18.8571 2.25717V11.6287C18.8571 16.2044 15.5571 20.0116 11.1964 20.8363V39.7434C11.1963 40.1886 11.0261 40.6171 10.7203 40.9424C10.4146 41.2678 9.99594 41.4656 9.54907 41.4959C9.1022 41.5263 8.6604 41.3869 8.31294 41.1059C7.96548 40.825 7.73827 40.4234 7.67721 39.9823L7.66071 39.7434V20.8363C5.58824 20.4424 3.70845 19.3693 2.32184 17.7885C0.935232 16.2077 0.121873 14.2104 0.011786 12.116L0 11.6287V2.25717C0.000137286 1.81196 0.17029 1.38341 0.476078 1.0581C0.781866 0.732784 1.20049 0.53497 1.64736 0.504625C2.09423 0.47428 2.53603 0.613666 2.88349 0.894618C3.23095 1.17557 3.45816 1.57714 3.51921 2.01819L3.53571 2.25717V11.6287C3.53571 14.2528 5.27057 16.4715 7.66071 17.2188V2.25717C7.66085 1.81196 7.83101 1.38341 8.13679 1.0581C8.44258 0.732784 8.8612 0.53497 9.30807 0.504625C9.75495 0.47428 10.1967 0.613666 10.5442 0.894618C10.8917 1.17557 11.1189 1.57714 11.1799 2.01819L11.1964 2.25717V17.2165C12.3212 16.8642 13.314 16.1847 14.0463 15.2659C14.7787 14.3471 15.2171 13.2311 15.3049 12.0622L15.3214 11.6287V2.25717C15.3214 1.79114 15.5077 1.34419 15.8392 1.01466C16.1708 0.685129 16.6204 0.5 17.0893 0.5ZM29.4643 24.5146V4.31422C28.4953 4.65509 27.6467 5.26825 27.0216 6.07925C26.3965 6.89025 26.0217 7.8642 25.9427 8.88285L25.9286 9.28583V24.5146H29.4643Z" fill="#330900"/>
</svg>
