<svg width="48" height="47" viewBox="0 0 48 47" fill="none" xmlns="http://www.w3.org/2000/svg">
<path fill-rule="evenodd" clip-rule="evenodd" d="M24 4.7C20.6418 4.69939 17.3422 5.56124 14.4305 7.19952C11.5188 8.8378 9.0969 11.1952 7.40646 14.0364C5.71602 16.8777 4.8162 20.1033 4.79682 23.3915C4.77744 26.6796 5.63918 29.9153 7.29602 32.7754C8.41588 31.3503 9.85545 30.1965 11.5034 29.4031C13.1514 28.6098 14.9636 28.1981 16.8 28.2H31.2C33.0364 28.1981 34.8486 28.6098 36.4966 29.4031C38.1446 30.1965 39.5841 31.3503 40.704 32.7754C42.3608 29.9153 43.2226 26.6796 43.2032 23.3915C43.1838 20.1033 42.284 16.8777 40.5936 14.0364C38.9031 11.1952 36.4812 8.8378 33.5695 7.19952C30.6578 5.56124 27.3582 4.69939 24 4.7ZM43.0632 37.7786C46.2721 33.6824 48.0077 28.6624 48 23.5C48 10.5209 37.2552 0 24 0C10.7448 0 2.70078e-05 10.5209 2.70078e-05 23.5C-0.00789643 28.6624 1.7278 33.6825 4.93682 37.7786L4.92482 37.8209L5.77682 38.7914C8.02774 41.3682 10.8225 43.4365 13.9686 44.8536C17.1146 46.2707 20.537 47.003 24 47C28.8656 47.0087 33.6178 45.5615 37.62 42.8522C39.3262 41.6979 40.8734 40.3331 42.2232 38.7914L43.0752 37.8209L43.0632 37.7786ZM24 9.39999C22.0904 9.39999 20.2591 10.1428 18.9088 11.4649C17.5586 12.787 16.8 14.5802 16.8 16.45C16.8 18.3198 17.5586 20.113 18.9088 21.4351C20.2591 22.7572 22.0904 23.5 24 23.5C25.9096 23.5 27.7409 22.7572 29.0912 21.4351C30.4414 20.113 31.2 18.3198 31.2 16.45C31.2 14.5802 30.4414 12.787 29.0912 11.4649C27.7409 10.1428 25.9096 9.39999 24 9.39999Z" fill="#000F0E"/>
</svg>
