<svg width="18" height="18" viewBox="0 0 18 18" fill="none" xmlns="http://www.w3.org/2000/svg">
<path fill-rule="evenodd" clip-rule="evenodd" d="M11.7014 15.4582H17.3334C17.3744 15.4582 17.4151 15.4542 17.4554 15.4462C17.4956 15.4382 17.5347 15.4263 17.5726 15.4106C17.6105 15.3949 17.6465 15.3757 17.6806 15.3529C17.7148 15.3301 17.7463 15.3042 17.7753 15.2751C17.8044 15.2461 17.8303 15.2145 17.8531 15.1804C17.8759 15.1462 17.8952 15.1102 17.9108 15.0724C17.9266 15.0344 17.9384 14.9954 17.9464 14.9551C17.9544 14.9148 17.9584 14.8742 17.9584 14.8332C17.9584 14.7921 17.9544 14.7515 17.9464 14.7113C17.9384 14.671 17.9266 14.6319 17.9108 14.594C17.8952 14.5561 17.8759 14.5201 17.8531 14.486C17.8303 14.4519 17.8044 14.4202 17.7753 14.3912C17.7463 14.3622 17.7148 14.3363 17.6806 14.3135C17.6465 14.2907 17.6105 14.2715 17.5726 14.2558C17.5347 14.2401 17.4956 14.2282 17.4554 14.2202C17.4151 14.2122 17.3744 14.2082 17.3334 14.2082H15.4584V6.49984C15.4584 4.71642 14.8279 3.19418 13.5668 1.93311C12.3058 0.672046 10.7835 0.0415037 9.00009 0.0415039C7.21666 0.0415042 5.69442 0.672046 4.43335 1.93311C3.17228 3.19418 2.54175 4.71642 2.54175 6.49984V14.2082H0.666748C0.62571 14.2082 0.58508 14.2122 0.54483 14.2202C0.50458 14.2282 0.465496 14.2401 0.427582 14.2558C0.389668 14.2715 0.353641 14.2907 0.319519 14.3135C0.285397 14.3363 0.253842 14.3622 0.224823 14.3912C0.195805 14.4202 0.169894 14.4519 0.147095 14.486C0.124295 14.5201 0.105029 14.5561 0.089325 14.594C0.0736203 14.6319 0.0617781 14.671 0.053772 14.7113C0.0457658 14.7515 0.041748 14.7921 0.041748 14.8332C0.041748 14.8742 0.0457658 14.9148 0.053772 14.9551C0.0617781 14.9954 0.0736203 15.0344 0.089325 15.0724C0.105029 15.1102 0.124295 15.1462 0.147095 15.1804C0.169894 15.2145 0.195805 15.2461 0.224823 15.2751C0.253842 15.3042 0.285397 15.3301 0.319519 15.3529C0.353641 15.3757 0.389668 15.3949 0.427582 15.4106C0.465496 15.4263 0.50458 15.4382 0.54483 15.4462C0.58508 15.4542 0.62571 15.4582 0.666748 15.4582H6.2988C6.3439 16.117 6.60598 16.6859 7.08502 17.1649C7.61386 17.6938 8.2522 17.9582 9.00009 17.9582C9.74798 17.9582 10.3863 17.6938 10.9151 17.1649C11.3942 16.6859 11.6563 16.117 11.7014 15.4582ZM14.2084 6.49984V14.2082H3.79175V6.49984C3.79175 5.0616 4.30027 3.83399 5.31726 2.81699C6.33425 1.80001 7.56184 1.29151 9.00009 1.29151C10.4383 1.29151 11.666 1.80001 12.683 2.81699C13.7 3.83399 14.2084 5.0616 14.2084 6.49984ZM7.9689 16.281C7.73456 16.0466 7.59663 15.7724 7.55515 15.4582H10.445C10.4036 15.7724 10.2656 16.0466 10.0313 16.281C9.74652 16.5658 9.40279 16.7082 9.00009 16.7082C8.59738 16.7082 8.25366 16.5658 7.9689 16.281Z" fill="#330900"/>
</svg>
