<svg width="19" height="16" viewBox="0 0 19 16" fill="none" xmlns="http://www.w3.org/2000/svg">
<path d="M9.0652 6.00186V15.0019M9.0652 6.00186L12.0652 9.00186M9.0652 6.00186L6.0652 9.00186M14.5652 11.0019C16.0842 11.0019 17.0652 9.77086 17.0652 8.25186C17.0651 7.65048 16.868 7.0657 16.5039 6.58707C16.1397 6.10845 15.6288 5.76238 15.0492 5.60186C14.96 4.48032 14.4952 3.42163 13.7299 2.59696C12.9646 1.77228 11.9435 1.22983 10.8317 1.05729C9.71993 0.884754 8.58246 1.09222 7.60319 1.64615C6.62392 2.20008 5.8601 3.0681 5.4352 4.10986C4.54063 3.86189 3.58418 3.97943 2.77628 4.43665C1.96837 4.89386 1.37518 5.65329 1.1272 6.54786C0.879224 7.44244 0.996772 8.39888 1.45399 9.20679C1.9112 10.0147 2.67063 10.6079 3.5652 10.8559" stroke="#330900" stroke-width="2" stroke-linecap="round" stroke-linejoin="round"/>
</svg>
